<svg xmlns="http://www.w3.org/2000/svg" xmlns:xlink="http://www.w3.org/1999/xlink" width="500" zoomAndPan="magnify" viewBox="0 0 375 299.999988" height="400" preserveAspectRatio="xMidYMid meet" version="1.0"><defs><g/><clipPath id="c4345cbe37"><path d="M 267 46.203125 L 290 46.203125 L 290 92 L 267 92 Z M 267 46.203125 " clip-rule="nonzero"/></clipPath><clipPath id="a41df4fc9c"><path d="M 350 46.203125 L 373 46.203125 L 373 92 L 350 92 Z M 350 46.203125 " clip-rule="nonzero"/></clipPath></defs><path stroke-linecap="butt" transform="matrix(0.749998, -0.00184303, 0.00184303, 0.749998, 13.019576, 217.947858)" fill="none" stroke-linejoin="miter" d="M -0.00252165 1.001811 L 406.941457 1.001822 " stroke="#0097b2" stroke-width="2" stroke-opacity="1" stroke-miterlimit="4"/><path stroke-linecap="butt" transform="matrix(0.75, 0, 0, 0.75, 13.021419, 140.926205)" fill="none" stroke-linejoin="miter" d="M -0.0025171 0.999435 L 37.809986 0.999435 " stroke="#0097b2" stroke-width="2" stroke-opacity="1" stroke-miterlimit="4"/><g fill="#e6e6fa" fill-opacity="1"><g transform="translate(19.583919, 161.149014)"><g><path d="M 48.8125 -37.890625 C 47.582031 -37.742188 46.660156 -37.53125 46.046875 -37.25 C 45.429688 -36.976562 44.785156 -36.597656 44.109375 -36.109375 C 43.441406 -35.617188 42.773438 -34.976562 42.109375 -34.1875 C 41.453125 -33.40625 40.039062 -31.453125 37.875 -28.328125 C 35.71875 -25.203125 33.875 -22.4375 32.34375 -20.03125 C 31.164062 -18.238281 30.441406 -16.796875 30.171875 -15.703125 C 29.910156 -14.609375 29.78125 -12.914062 29.78125 -10.625 L 29.78125 -6.328125 C 29.78125 -5.753906 29.867188 -5.234375 30.046875 -4.765625 C 30.234375 -4.304688 30.519531 -3.941406 30.90625 -3.671875 C 31.289062 -3.410156 32.054688 -3.144531 33.203125 -2.875 C 34.347656 -2.601562 35.222656 -2.421875 35.828125 -2.328125 L 35.828125 0 L 10.796875 0 L 10.796875 -2.328125 C 11.972656 -2.398438 13.070312 -2.539062 14.09375 -2.75 C 15.125 -2.957031 15.847656 -3.328125 16.265625 -3.859375 C 16.679688 -4.398438 16.890625 -5.125 16.890625 -6.03125 L 16.890625 -11.25 C 16.890625 -12.3125 16.851562 -13.128906 16.78125 -13.703125 C 16.707031 -14.273438 16.554688 -14.867188 16.328125 -15.484375 C 16.097656 -16.097656 15.773438 -16.804688 15.359375 -17.609375 C 14.941406 -18.410156 13.550781 -20.851562 11.1875 -24.9375 C 8.832031 -29.019531 7.191406 -31.753906 6.265625 -33.140625 C 5.335938 -34.535156 4.210938 -35.664062 2.890625 -36.53125 C 1.566406 -37.40625 -0.09375 -37.859375 -2.09375 -37.890625 L -2.09375 -40.21875 L 25.078125 -40.21875 L 25.078125 -37.890625 L 23.328125 -37.8125 C 22.234375 -37.75 21.335938 -37.597656 20.640625 -37.359375 C 19.953125 -37.128906 19.609375 -36.804688 19.609375 -36.390625 C 19.609375 -35.203125 22.53125 -29.664062 28.375 -19.78125 C 34.800781 -29.363281 38.015625 -34.675781 38.015625 -35.71875 C 38.015625 -36.4375 37.609375 -36.953125 36.796875 -37.265625 C 35.984375 -37.585938 34.8125 -37.796875 33.28125 -37.890625 L 33.28125 -40.21875 L 48.8125 -40.21875 Z M 48.8125 -37.890625 "/></g></g></g><g fill="#e6e6fa" fill-opacity="1"><g transform="translate(66.309272, 161.149014)"><g><path d="M 42.546875 -10.03125 C 41.066406 -7.382812 39.476562 -5.289062 37.78125 -3.75 C 36.082031 -2.21875 34.101562 -1.003906 31.84375 -0.109375 C 29.582031 0.773438 27.035156 1.21875 24.203125 1.21875 C 19.859375 1.21875 15.988281 0.359375 12.59375 -1.359375 C 9.207031 -3.078125 6.582031 -5.53125 4.71875 -8.71875 C 2.851562 -11.914062 1.921875 -15.585938 1.921875 -19.734375 C 1.921875 -23.867188 2.898438 -27.597656 4.859375 -30.921875 C 6.816406 -34.242188 9.535156 -36.816406 13.015625 -38.640625 C 16.503906 -40.460938 20.46875 -41.375 24.90625 -41.375 C 26.726562 -41.375 28.597656 -41.160156 30.515625 -40.734375 C 32.429688 -40.316406 34.203125 -39.703125 35.828125 -38.890625 L 37.890625 -40.21875 L 40.390625 -40.21875 L 40.703125 -25.3125 L 38.15625 -25.3125 C 36.65625 -29.769531 34.910156 -33.070312 32.921875 -35.21875 C 30.929688 -37.363281 28.453125 -38.4375 25.484375 -38.4375 C 22.359375 -38.4375 20.046875 -37.003906 18.546875 -34.140625 C 17.046875 -31.273438 16.296875 -26.894531 16.296875 -21 C 16.296875 -17.03125 16.664062 -13.742188 17.40625 -11.140625 C 18.144531 -8.546875 19.296875 -6.601562 20.859375 -5.3125 C 22.429688 -4.019531 24.53125 -3.375 27.15625 -3.375 C 29.519531 -3.375 31.6875 -4.007812 33.65625 -5.28125 C 35.632812 -6.5625 37.707031 -8.734375 39.875 -11.796875 Z M 42.546875 -10.03125 "/></g></g></g><g fill="#e6e6fa" fill-opacity="1"><g transform="translate(109.606021, 161.149014)"><g><path d="M 33.5625 -21.9375 C 33.5625 -20.125 32.945312 -18.566406 31.71875 -17.265625 C 30.488281 -15.972656 29.015625 -15.328125 27.296875 -15.328125 C 25.421875 -15.328125 23.9375 -15.78125 22.84375 -16.6875 C 21.75 -17.59375 21.203125 -18.859375 21.203125 -20.484375 C 21.203125 -21.679688 21.351562 -22.628906 21.65625 -23.328125 C 20.5 -23.097656 19.222656 -22.285156 17.828125 -20.890625 L 17.828125 -5.859375 C 17.828125 -4.503906 18.234375 -3.582031 19.046875 -3.09375 C 19.253906 -2.914062 19.925781 -2.734375 21.0625 -2.546875 C 22.195312 -2.359375 22.929688 -2.265625 23.265625 -2.265625 L 23.265625 0 L 1.328125 0 L 1.328125 -2.265625 C 2.140625 -2.265625 2.941406 -2.363281 3.734375 -2.5625 C 4.535156 -2.757812 5.070312 -3.101562 5.34375 -3.59375 C 5.613281 -4.09375 5.75 -4.71875 5.75 -5.46875 L 5.75 -21.421875 C 5.75 -22.742188 5.164062 -23.785156 4 -24.546875 C 3.507812 -24.941406 2.46875 -25.269531 0.875 -25.53125 L 0.875 -27.796875 L 17.34375 -28.5625 L 17.828125 -28.140625 L 17.828125 -23.859375 L 17.9375 -23.859375 C 19.238281 -25.390625 20.273438 -26.453125 21.046875 -27.046875 C 21.828125 -27.648438 22.65625 -28.109375 23.53125 -28.421875 C 24.414062 -28.742188 25.378906 -28.90625 26.421875 -28.90625 C 28.566406 -28.90625 30.289062 -28.253906 31.59375 -26.953125 C 32.90625 -25.648438 33.5625 -23.976562 33.5625 -21.9375 Z M 33.5625 -21.9375 "/></g></g></g><g fill="#e6e6fa" fill-opacity="1"><g transform="translate(143.325348, 161.149014)"><g><path d="M 36.046875 -26.015625 C 34.921875 -25.773438 34.082031 -25.453125 33.53125 -25.046875 C 32.976562 -24.640625 32.46875 -24.050781 32 -23.28125 C 31.53125 -22.519531 30.617188 -20.726562 29.265625 -17.90625 C 27.910156 -15.09375 24.984375 -8.832031 20.484375 0.875 C 18.691406 4.707031 16.707031 7.613281 14.53125 9.59375 C 12.363281 11.582031 9.9375 12.578125 7.25 12.578125 C 5.5 12.578125 4.023438 12.023438 2.828125 10.921875 C 1.640625 9.816406 1.046875 8.425781 1.046875 6.75 C 1.046875 5.15625 1.554688 3.878906 2.578125 2.921875 C 3.597656 1.972656 4.988281 1.5 6.75 1.5 C 8.863281 1.5 11.175781 2.953125 13.6875 5.859375 C 14.988281 4.554688 15.984375 3.125 16.671875 1.5625 L 14.109375 -3.28125 C 10.617188 -10.03125 7.097656 -16.578125 3.546875 -22.921875 C 2.453125 -24.753906 0.941406 -25.804688 -0.984375 -26.078125 L -0.984375 -28.203125 L 19.5625 -28.203125 L 19.5625 -26.125 C 18.664062 -26.09375 17.832031 -25.914062 17.0625 -25.59375 C 16.289062 -25.269531 15.90625 -24.921875 15.90625 -24.546875 C 15.90625 -24.265625 16.007812 -23.882812 16.21875 -23.40625 C 16.4375 -22.9375 16.9375 -21.925781 17.71875 -20.375 C 18.507812 -18.820312 19.3125 -17.3125 20.125 -15.84375 C 20.9375 -14.375 21.851562 -12.785156 22.875 -11.078125 C 23.644531 -12.722656 24.351562 -14.296875 25 -15.796875 C 25.644531 -17.296875 26.269531 -18.851562 26.875 -20.46875 C 27.488281 -22.09375 27.796875 -23.265625 27.796875 -23.984375 C 27.796875 -24.472656 27.378906 -24.910156 26.546875 -25.296875 C 25.722656 -25.679688 24.671875 -25.921875 23.390625 -26.015625 L 23.390625 -28.203125 L 36.046875 -28.203125 Z M 36.046875 -26.015625 "/></g></g></g><g fill="#e6e6fa" fill-opacity="1"><g transform="translate(178.489789, 161.149014)"><g><path d="M 38.546875 -13.640625 C 38.546875 -11.003906 37.941406 -8.582031 36.734375 -6.375 C 35.523438 -4.164062 33.828125 -2.421875 31.640625 -1.140625 C 29.460938 0.128906 27.097656 0.765625 24.546875 0.765625 C 23.148438 0.765625 21.875 0.625 20.71875 0.34375 C 19.5625 0.0625 18.4375 -0.4375 17.34375 -1.15625 L 17.125 -1.15625 L 17.125 6.4375 C 17.125 7.132812 17.28125 7.742188 17.59375 8.265625 C 17.914062 8.796875 18.34375 9.195312 18.875 9.46875 C 19.40625 9.695312 20.660156 9.941406 22.640625 10.203125 L 23.75 10.40625 L 23.75 12.578125 L -0.171875 12.578125 L -0.171875 10.40625 L 1.75 10.09375 C 3.1875 9.863281 4.09375 9.503906 4.46875 9.015625 C 4.851562 8.523438 5.046875 7.828125 5.046875 6.921875 L 5.046875 -21.65625 C 4.878906 -22.632812 4.601562 -23.347656 4.21875 -23.796875 C 3.84375 -24.253906 3.316406 -24.609375 2.640625 -24.859375 C 1.972656 -25.117188 1.070312 -25.34375 -0.0625 -25.53125 L -0.0625 -27.796875 L 16.78125 -28.5625 L 17.171875 -28.203125 L 17.171875 -25.078125 L 17.40625 -25.03125 C 19.0625 -26.539062 20.566406 -27.582031 21.921875 -28.15625 C 23.273438 -28.738281 24.675781 -29.03125 26.125 -29.03125 C 30.09375 -29.03125 33.15625 -27.675781 35.3125 -24.96875 C 37.46875 -22.269531 38.546875 -18.492188 38.546875 -13.640625 Z M 25.421875 -13.640625 C 25.421875 -20.453125 23.832031 -23.859375 20.65625 -23.859375 C 20.019531 -23.859375 19.363281 -23.710938 18.6875 -23.421875 C 18.019531 -23.128906 17.5 -22.710938 17.125 -22.171875 L 17.125 -5.703125 C 17.9375 -3.335938 19.210938 -2.15625 20.953125 -2.15625 C 23.929688 -2.15625 25.421875 -5.984375 25.421875 -13.640625 Z M 25.421875 -13.640625 "/></g></g></g><g fill="#e6e6fa" fill-opacity="1"><g transform="translate(219.066324, 161.149014)"><g><path d="M 25.140625 -1.328125 C 21.585938 0.140625 18.28125 0.875 15.21875 0.875 C 11.800781 0.875 9.234375 0.0703125 7.515625 -1.53125 C 5.796875 -3.132812 4.9375 -5.46875 4.9375 -8.53125 L 4.9375 -24.859375 L -0.234375 -24.859375 L -0.234375 -28.09375 L 5.046875 -28.09375 L 5.046875 -36.625 L 17.0625 -36.625 L 17.0625 -28.09375 L 24.90625 -28.09375 L 24.90625 -24.859375 L 17.125 -24.859375 L 17.125 -10.34375 C 17.125 -7.832031 17.425781 -6.085938 18.03125 -5.109375 C 18.632812 -4.140625 19.644531 -3.65625 21.0625 -3.65625 L 23.234375 -3.734375 L 25.140625 -3.890625 Z M 25.140625 -1.328125 "/></g></g></g><g fill="#e6e6fa" fill-opacity="1"><g transform="translate(244.199974, 161.149014)"><g><path d="M 37.671875 -14.171875 C 37.671875 -11.179688 36.9375 -8.535156 35.46875 -6.234375 C 34.007812 -3.929688 31.910156 -2.148438 29.171875 -0.890625 C 26.429688 0.359375 23.226562 0.984375 19.5625 0.984375 C 16.15625 0.984375 13.109375 0.363281 10.421875 -0.875 C 7.742188 -2.125 5.6875 -3.882812 4.25 -6.15625 C 2.8125 -8.4375 2.09375 -11.070312 2.09375 -14.0625 C 2.09375 -17.0625 2.796875 -19.707031 4.203125 -22 C 5.617188 -24.300781 7.648438 -26.066406 10.296875 -27.296875 C 12.953125 -28.523438 16.054688 -29.140625 19.609375 -29.140625 C 25.179688 -29.140625 29.582031 -27.789062 32.8125 -25.09375 C 36.050781 -22.40625 37.671875 -18.765625 37.671875 -14.171875 Z M 24.203125 -14.34375 C 24.203125 -17.738281 24.0625 -20.21875 23.78125 -21.78125 C 23.5 -23.351562 23.039062 -24.566406 22.40625 -25.421875 C 21.769531 -26.273438 20.894531 -26.703125 19.78125 -26.703125 C 18.707031 -26.703125 17.867188 -26.296875 17.265625 -25.484375 C 16.671875 -24.671875 16.238281 -23.546875 15.96875 -22.109375 C 15.695312 -20.671875 15.5625 -18.117188 15.5625 -14.453125 C 15.5625 -10.460938 15.6875 -7.6875 15.9375 -6.125 C 16.195312 -4.570312 16.628906 -3.40625 17.234375 -2.625 C 17.835938 -1.84375 18.6875 -1.453125 19.78125 -1.453125 C 20.863281 -1.453125 21.722656 -1.875 22.359375 -2.71875 C 23.003906 -3.570312 23.472656 -4.8125 23.765625 -6.4375 C 24.054688 -8.0625 24.203125 -10.695312 24.203125 -14.34375 Z M 24.203125 -14.34375 "/></g></g></g><path stroke-linecap="butt" transform="matrix(0, -0.75, 0.75, 0, 318.221876, 218.694767)" fill="none" stroke-linejoin="miter" d="M -0.000727413 1.001041 L 69.99407 1.001041 " stroke="#0097b2" stroke-width="2" stroke-opacity="1" stroke-miterlimit="4"/><path stroke-linecap="butt" transform="matrix(0, -0.75, 0.75, 0, 12.268396, 218.694841)" fill="none" stroke-linejoin="miter" d="M -0.000628213 1.001514 L 102.697297 1.001514 " stroke="#0097b2" stroke-width="2" stroke-opacity="1" stroke-miterlimit="4"/><path fill="#0097b2" d="M 309.417969 107.617188 C 309.417969 108.363281 309.382812 109.101562 309.308594 109.84375 C 309.234375 110.582031 309.125 111.316406 308.980469 112.046875 C 308.835938 112.777344 308.65625 113.496094 308.441406 114.207031 C 308.226562 114.917969 307.972656 115.617188 307.691406 116.304688 C 307.40625 116.992188 307.089844 117.664062 306.738281 118.320312 C 306.386719 118.972656 306.003906 119.609375 305.59375 120.230469 C 305.179688 120.847656 304.738281 121.445312 304.265625 122.019531 C 303.792969 122.59375 303.296875 123.144531 302.769531 123.667969 C 302.242188 124.195312 301.695312 124.691406 301.117188 125.164062 C 300.542969 125.636719 299.949219 126.078125 299.328125 126.492188 C 298.710938 126.90625 298.074219 127.285156 297.417969 127.636719 C 296.761719 127.988281 296.09375 128.304688 295.40625 128.589844 C 294.71875 128.875 294.019531 129.125 293.308594 129.339844 C 292.597656 129.554688 291.875 129.734375 291.148438 129.878906 C 290.417969 130.027344 289.683594 130.132812 288.945312 130.207031 C 288.203125 130.28125 287.460938 130.316406 286.71875 130.316406 C 285.976562 130.316406 285.234375 130.28125 284.492188 130.207031 C 283.753906 130.132812 283.019531 130.027344 282.289062 129.878906 C 281.5625 129.734375 280.839844 129.554688 280.128906 129.339844 C 279.417969 129.125 278.71875 128.875 278.03125 128.589844 C 277.34375 128.304688 276.675781 127.988281 276.019531 127.636719 C 275.363281 127.285156 274.726562 126.902344 274.109375 126.492188 C 273.488281 126.078125 272.894531 125.636719 272.320312 125.164062 C 271.742188 124.691406 271.195312 124.191406 270.667969 123.667969 C 270.144531 123.140625 269.644531 122.589844 269.171875 122.015625 C 268.699219 121.441406 268.257812 120.847656 267.84375 120.226562 C 267.433594 119.609375 267.050781 118.972656 266.699219 118.316406 C 266.351562 117.660156 266.03125 116.988281 265.75 116.304688 C 265.464844 115.617188 265.214844 114.917969 264.996094 114.207031 C 264.78125 113.496094 264.601562 112.773438 264.457031 112.046875 C 264.3125 111.316406 264.203125 110.582031 264.128906 109.839844 C 264.058594 109.101562 264.019531 108.359375 264.019531 107.617188 C 264.019531 106.875 264.058594 106.132812 264.128906 105.390625 C 264.203125 104.652344 264.3125 103.917969 264.457031 103.1875 C 264.601562 102.460938 264.78125 101.738281 265 101.027344 C 265.214844 100.316406 265.464844 99.617188 265.75 98.929688 C 266.035156 98.242188 266.351562 97.570312 266.703125 96.917969 C 267.050781 96.261719 267.433594 95.625 267.847656 95.007812 C 268.261719 94.386719 268.703125 93.792969 269.175781 93.21875 C 269.644531 92.640625 270.144531 92.09375 270.671875 91.566406 C 271.195312 91.039062 271.746094 90.542969 272.320312 90.070312 C 272.894531 89.597656 273.492188 89.15625 274.109375 88.742188 C 274.730469 88.332031 275.367188 87.949219 276.023438 87.597656 C 276.675781 87.25 277.347656 86.929688 278.035156 86.648438 C 278.722656 86.363281 279.421875 86.113281 280.132812 85.898438 C 280.84375 85.679688 281.566406 85.5 282.292969 85.355469 C 283.023438 85.210938 283.757812 85.101562 284.496094 85.027344 C 285.238281 84.957031 285.980469 84.917969 286.722656 84.917969 C 287.464844 84.921875 288.207031 84.957031 288.945312 85.03125 C 289.683594 85.105469 290.417969 85.214844 291.148438 85.359375 C 291.878906 85.507812 292.597656 85.6875 293.308594 85.902344 C 294.019531 86.121094 294.71875 86.371094 295.402344 86.65625 C 296.089844 86.941406 296.761719 87.257812 297.417969 87.609375 C 298.070312 87.957031 298.707031 88.339844 299.324219 88.753906 C 299.945312 89.167969 300.539062 89.609375 301.113281 90.082031 C 301.6875 90.550781 302.238281 91.050781 302.761719 91.574219 C 303.289062 92.101562 303.789062 92.652344 304.257812 93.226562 C 304.730469 93.800781 305.171875 94.398438 305.585938 95.015625 C 306 95.632812 306.378906 96.269531 306.730469 96.925781 C 307.082031 97.578125 307.398438 98.25 307.683594 98.9375 C 307.96875 99.621094 308.21875 100.320312 308.433594 101.03125 C 308.652344 101.742188 308.832031 102.464844 308.976562 103.191406 C 309.125 103.921875 309.234375 104.65625 309.304688 105.394531 C 309.378906 106.132812 309.417969 106.875 309.417969 107.617188 Z M 309.417969 107.617188 " fill-opacity="1" fill-rule="nonzero"/><path fill="#0097b2" d="M 375.726562 107.617188 C 375.726562 108.363281 375.691406 109.101562 375.621094 109.84375 C 375.546875 110.582031 375.4375 111.316406 375.292969 112.046875 C 375.148438 112.777344 374.96875 113.496094 374.75 114.207031 C 374.535156 114.917969 374.285156 115.617188 374 116.304688 C 373.714844 116.992188 373.398438 117.664062 373.046875 118.316406 C 372.699219 118.972656 372.316406 119.609375 371.902344 120.230469 C 371.488281 120.847656 371.046875 121.445312 370.574219 122.019531 C 370.105469 122.59375 369.605469 123.144531 369.082031 123.667969 C 368.554688 124.195312 368.003906 124.691406 367.429688 125.164062 C 366.855469 125.636719 366.257812 126.078125 365.640625 126.492188 C 365.023438 126.90625 364.386719 127.285156 363.730469 127.636719 C 363.074219 127.988281 362.402344 128.304688 361.714844 128.589844 C 361.03125 128.875 360.332031 129.125 359.617188 129.339844 C 358.90625 129.554688 358.1875 129.734375 357.457031 129.878906 C 356.730469 130.027344 355.996094 130.132812 355.253906 130.207031 C 354.515625 130.28125 353.773438 130.316406 353.03125 130.316406 C 352.285156 130.316406 351.546875 130.28125 350.804688 130.207031 C 350.066406 130.132812 349.332031 130.027344 348.601562 129.878906 C 347.871094 129.734375 347.152344 129.554688 346.441406 129.339844 C 345.730469 129.125 345.03125 128.875 344.34375 128.589844 C 343.65625 128.304688 342.984375 127.988281 342.328125 127.636719 C 341.675781 127.285156 341.039062 126.90625 340.417969 126.492188 C 339.800781 126.078125 339.203125 125.636719 338.628906 125.164062 C 338.054688 124.691406 337.503906 124.195312 336.980469 123.667969 C 336.453125 123.144531 335.957031 122.59375 335.484375 122.019531 C 335.011719 121.445312 334.570312 120.847656 334.15625 120.230469 C 333.742188 119.609375 333.363281 118.972656 333.011719 118.316406 C 332.660156 117.664062 332.34375 116.992188 332.058594 116.304688 C 331.773438 115.617188 331.523438 114.917969 331.308594 114.207031 C 331.09375 113.496094 330.914062 112.777344 330.769531 112.046875 C 330.621094 111.316406 330.515625 110.582031 330.441406 109.84375 C 330.367188 109.101562 330.332031 108.363281 330.332031 107.617188 C 330.332031 106.875 330.367188 106.132812 330.441406 105.394531 C 330.515625 104.652344 330.621094 103.917969 330.769531 103.191406 C 330.914062 102.460938 331.09375 101.742188 331.308594 101.03125 C 331.523438 100.316406 331.773438 99.617188 332.058594 98.933594 C 332.34375 98.246094 332.660156 97.574219 333.011719 96.917969 C 333.363281 96.261719 333.742188 95.625 334.15625 95.007812 C 334.570312 94.390625 335.011719 93.792969 335.484375 93.21875 C 335.957031 92.644531 336.453125 92.09375 336.980469 91.566406 C 337.503906 91.042969 338.054688 90.542969 338.628906 90.070312 C 339.203125 89.601562 339.800781 89.160156 340.417969 88.746094 C 341.039062 88.332031 341.675781 87.949219 342.328125 87.601562 C 342.984375 87.25 343.65625 86.933594 344.34375 86.648438 C 345.03125 86.363281 345.730469 86.113281 346.441406 85.898438 C 347.152344 85.679688 347.871094 85.5 348.601562 85.355469 C 349.332031 85.210938 350.066406 85.101562 350.804688 85.027344 C 351.546875 84.957031 352.285156 84.917969 353.03125 84.917969 C 353.773438 84.921875 354.515625 84.957031 355.253906 85.03125 C 355.992188 85.105469 356.726562 85.214844 357.457031 85.359375 C 358.183594 85.507812 358.90625 85.6875 359.617188 85.902344 C 360.328125 86.121094 361.027344 86.371094 361.710938 86.65625 C 362.398438 86.941406 363.070312 87.257812 363.726562 87.609375 C 364.378906 87.957031 365.015625 88.339844 365.632812 88.753906 C 366.253906 89.167969 366.847656 89.609375 367.421875 90.082031 C 367.996094 90.550781 368.546875 91.050781 369.074219 91.574219 C 369.597656 92.101562 370.097656 92.652344 370.566406 93.226562 C 371.039062 93.800781 371.480469 94.394531 371.894531 95.015625 C 372.308594 95.632812 372.691406 96.269531 373.039062 96.921875 C 373.390625 97.578125 373.707031 98.25 373.992188 98.9375 C 374.277344 99.621094 374.527344 100.320312 374.746094 101.03125 C 374.960938 101.742188 375.140625 102.464844 375.289062 103.191406 C 375.433594 103.921875 375.542969 104.65625 375.617188 105.394531 C 375.691406 106.132812 375.726562 106.875 375.726562 107.617188 Z M 375.726562 107.617188 " fill-opacity="1" fill-rule="nonzero"/><g clip-path="url(#c4345cbe37)"><path fill="#e6e6fa" d="M 289.527344 46.265625 L 288.683594 50.953125 C 288.484375 50.953125 288.261719 50.9375 288.027344 50.9375 C 286.15625 50.9375 283.4375 51.308594 281.160156 53.097656 C 278.808594 54.941406 277.339844 57.988281 276.808594 62.152344 L 276.808594 62.277344 L 271.765625 87.117188 C 270.054688 88.367188 268.523438 89.804688 267.175781 91.4375 L 272.695312 61.382812 C 272.699219 61.359375 272.699219 61.339844 272.695312 61.316406 C 273.429688 55.835938 275.515625 51.742188 278.871094 49.148438 C 282.015625 46.714844 285.605469 46.207031 288.054688 46.207031 C 288.625 46.203125 289.117188 46.234375 289.527344 46.265625 Z M 289.527344 46.265625 " fill-opacity="1" fill-rule="nonzero"/></g><g clip-path="url(#a41df4fc9c)"><path fill="#e6e6fa" d="M 372.582031 91.425781 C 371.234375 89.796875 369.703125 88.355469 367.992188 87.105469 L 362.984375 62.40625 L 362.945312 62.179688 C 362.40625 57.980469 360.925781 54.917969 358.546875 53.078125 C 356.265625 51.316406 353.582031 50.945312 351.738281 50.945312 C 351.496094 50.945312 351.273438 50.945312 351.066406 50.960938 L 350.222656 46.277344 C 350.636719 46.246094 351.125 46.21875 351.683594 46.21875 C 354.144531 46.21875 357.738281 46.730469 360.878906 49.160156 C 364.234375 51.742188 366.320312 55.835938 367.042969 61.324219 C 367.042969 61.347656 367.042969 61.367188 367.042969 61.390625 Z M 372.582031 91.425781 " fill-opacity="1" fill-rule="nonzero"/></g><path fill="#0097b2" d="M 355.335938 162.855469 C 351.929688 163.960938 347.398438 165.015625 342.644531 165.015625 C 339.875 165.039062 337.171875 164.640625 334.527344 163.8125 C 328.726562 161.921875 324.203125 157.824219 321.089844 151.609375 C 320.972656 151.378906 320.808594 151.199219 320.589844 151.066406 C 320.375 150.929688 320.136719 150.863281 319.882812 150.863281 C 319.625 150.863281 319.390625 150.929688 319.171875 151.066406 C 318.953125 151.199219 318.789062 151.378906 318.675781 151.609375 C 315.5625 157.820312 311.042969 161.921875 305.246094 163.804688 C 297.851562 166.207031 289.761719 164.566406 284.429688 162.839844 C 286.457031 162.03125 288.578125 160.625 290.75 158.609375 C 293.148438 156.316406 295.082031 153.679688 296.546875 150.703125 C 298.429688 147.011719 301.078125 144 304.496094 141.660156 C 306.128906 140.527344 307.890625 139.664062 309.785156 139.074219 C 311.679688 138.480469 313.621094 138.1875 315.605469 138.195312 L 324.148438 138.195312 C 326.136719 138.1875 328.078125 138.480469 329.976562 139.074219 C 331.871094 139.667969 333.636719 140.53125 335.269531 141.667969 C 338.679688 144.003906 341.328125 147.015625 343.203125 150.703125 C 344.671875 153.679688 346.605469 156.3125 349.007812 158.601562 C 351.179688 160.625 353.300781 162.046875 355.335938 162.855469 Z M 355.335938 162.855469 " fill-opacity="1" fill-rule="nonzero"/><path fill="#e6e6fa" d="M 334.996094 138.328125 C 331.625 136.433594 328.003906 135.492188 324.136719 135.5 L 315.605469 135.5 C 311.738281 135.492188 308.125 136.4375 304.753906 138.328125 C 303.421875 134.578125 302.972656 130.726562 303.40625 126.769531 C 304.335938 125.957031 305.203125 125.085938 306.007812 124.148438 C 306.8125 123.214844 307.542969 122.222656 308.203125 121.179688 C 308.863281 120.136719 309.441406 119.050781 309.945312 117.925781 C 310.445312 116.796875 310.863281 115.636719 311.195312 114.449219 C 311.527344 113.261719 311.773438 112.054688 311.929688 110.832031 C 312.085938 109.605469 312.152344 108.378906 312.128906 107.144531 C 312.105469 105.910156 311.992188 104.683594 311.792969 103.464844 C 311.589844 102.25 311.300781 101.050781 310.925781 99.875 C 312.308594 99.15625 313.761719 98.613281 315.277344 98.242188 C 316.792969 97.875 318.332031 97.6875 319.890625 97.6875 C 321.453125 97.6875 322.992188 97.875 324.507812 98.246094 C 326.023438 98.613281 327.472656 99.15625 328.859375 99.875 C 328.484375 101.050781 328.195312 102.25 327.992188 103.464844 C 327.792969 104.683594 327.679688 105.910156 327.65625 107.144531 C 327.632812 108.378906 327.699219 109.605469 327.855469 110.832031 C 328.011719 112.054688 328.257812 113.261719 328.589844 114.449219 C 328.921875 115.636719 329.339844 116.796875 329.839844 117.925781 C 330.339844 119.050781 330.921875 120.136719 331.582031 121.179688 C 332.242188 122.222656 332.972656 123.214844 333.777344 124.148438 C 334.582031 125.085938 335.449219 125.957031 336.378906 126.769531 C 336.800781 130.726562 336.339844 134.582031 334.996094 138.328125 Z M 334.996094 138.328125 " fill-opacity="1" fill-rule="nonzero"/><g fill="#e6e6fa" fill-opacity="1"><g transform="translate(225.734152, 201.912657)"><g><path d="M 5.523438 0 L 5.523438 -14.558594 L 19.421875 -0.664062 C 19.835938 -0.25 20.386719 0 20.996094 0 C 22.210938 0 23.207031 -0.996094 23.207031 -2.210938 L 23.207031 -22.101562 L 18.785156 -22.101562 L 18.785156 -7.542969 L 4.890625 -21.4375 C 4.476562 -21.851562 3.921875 -22.101562 3.316406 -22.101562 C 2.101562 -22.101562 1.105469 -21.105469 1.105469 -19.890625 L 1.105469 0 Z M 5.523438 0 "/></g></g></g><g fill="#e6e6fa" fill-opacity="1"><g transform="translate(250.038243, 201.912657)"><g><path d="M 23.207031 -22.101562 L 5.523438 -22.101562 C 3.09375 -22.101562 1.105469 -20.113281 1.105469 -17.679688 L 1.105469 0 L 5.523438 0 L 5.523438 -8.839844 L 23.207031 -8.839844 L 23.207031 -13.261719 L 5.523438 -13.261719 L 5.523438 -17.679688 L 23.207031 -17.679688 Z M 23.207031 -22.101562 "/></g></g></g><g fill="#e6e6fa" fill-opacity="1"><g transform="translate(274.342333, 201.912657)"><g><path d="M 23.207031 -22.101562 L 1.105469 -22.101562 L 1.105469 -17.679688 L 9.945312 -17.679688 L 9.945312 0 L 14.367188 0 L 14.367188 -17.679688 L 23.207031 -17.679688 Z M 23.207031 -22.101562 "/></g></g></g></svg>